<?xml version="1.0" standalone="no"?>
<!DOCTYPE svg PUBLIC "-//W3C//DTD SVG 1.1//EN" "http://www.w3.org/Graphics/SVG/1.1/DTD/svg11.dtd">
<svg xmlns="http://www.w3.org/2000/svg" width="647.1599731445312" height="396.7699890136719" version="1.1" viewBox="0 0 647.16 396.77">
 <path d="m366.34 183.7c-13.098 0-21.891 7.625-21.891 22.43v18.07c0 0.8125 0.1211 1.332 0.33594 1.6562 4e-3 0.0117 8e-3 0.0195 0.0117 0.0273 0.0156 0.0195 0.0234 0.0469 0.0391 0.0664 0.66797 1.4766 2.1445 2.5078 3.8711 2.5078 2.3477 0 4.2539-1.9062 4.2539-4.2578h0.0117v-18.07c0-9.6016 5.293-14.535 13.367-14.535s13.367 4.9336 13.367 14.535v18.07h0.0117c0 2.3516 1.9062 4.2578 4.2539 4.2578 2.3516 0 4.2578-1.9062 4.2578-4.2578v-18.07c0-14.895-8.793-22.43-21.891-22.43" style="fill:#3ac2d7"/>
 <path d="m552.84 205.43c0-15.492-9.4102-22.398-20.426-22.398-6.5469 0-11.742 2.957-14.785 8.4258v-18.746-8e-3c0-2.3516-1.9024-4.2578-4.2539-4.2578s-4.2578 1.9062-4.2578 4.2578v51.938h0.0469c0.22266 2.1406 2.0117 3.8164 4.2109 3.8164s3.9883-1.6758 4.2109-3.8164h0.043v-0.4336-8e-3 -8e-3 -18.762c0-9.4961 5.4688-14.508 13.352-14.508 8.0625 0 13.348 4.9219 13.348 14.508v19.145h0.0391c0.1914 2.1719 1.9961 3.8828 4.2148 3.8828 2.1992 0 3.9883-1.6758 4.2109-3.8164h0.0469z" style="fill:#3ac2d7"/>
 <path d="m279.23 185.93c-1.7305 0-3.2148 1.0352-3.875 2.5156h-4e-3l-0.1836 0.46875-11.898 30.051c-0.0781 0.1875-0.0976 0.27343-0.1289 0.35156-0.0274 0.0703-0.0664 0.13672-0.10547 0.20703-0.0195 0.0273-0.0391 0.0586-0.0664 0.0937-0.23828 0.33984-0.57812 0.47266-0.99609-0.043-0.17188-0.25-0.13672-0.27344-0.26953-0.60547l-12.027-30.391c-0.0117-0.0273-0.0234-0.0586-0.0352-0.0859l-0.0195-0.0508h-8e-3c-0.66406-1.4805-2.1445-2.5156-3.875-2.5156-2.3516 0-4.2578 1.9062-4.2578 4.2539 0 0.54688 0.11328 1.0664 0.30469 1.5469 0.0117 0.26562 0.0625 0.54687 0.19531 0.85937l13.199 31.648c1.2305 2.9492 4.1094 4.8711 7.3047 4.8711h0.0351c0.33204 0 0.65235-0.0273 0.97266-0.0664 0.0117 0 0.0312 0 0.0391-8e-3 1.2227-0.16015 2.3672-0.62109 3.3672-1.293 0.0859-0.0586 0.17969-0.11328 0.25781-0.17187 0.17969-0.13281 0.34766-0.27734 0.51563-0.42188 0.0469-0.043 0.0976-0.082 0.14062-0.12109 0.17578-0.16016 0.33985-0.32812 0.5-0.5 0.0156-0.0195 0.0312-0.0391 0.0469-0.0547 0.21094-0.23437 0.40625-0.48047 0.58984-0.73828 0.12891-0.17969 0.2461-0.35156 0.35547-0.52734 8e-3 -0.0156 0.0195-0.0312 0.0273-0.0469 0.75782-1.2266 1.0234-2.2695 1.0234-2.2695-0.0117 0.0273-0.0273 0.043-0.0391 0.0703l12.699-30.836 0.27344-0.67188 0.0195-0.0508v-0.0117c0.11718-0.38672 0.17578-0.78906 0.17578-1.207 0-2.3516-1.9024-4.25-4.2539-4.25" style="fill:#3ac2d7"/>
 <path d="m297.8 202.06c1.6641-6.8203 7.0859-10.668 14.258-10.668 6.9961 0 12.684 3.7578 14.344 10.668zm14.262-18.367c-13.645 0-23.266 9.6211-23.266 22.742 0 13.125 9.6211 22.746 23.266 22.746 5.9375 0 11.117-1.8008 15.039-4.9297 0.39844-0.31641 0.69922-0.6836 0.95703-1.0625 0.80078-0.77344 1.3008-1.8555 1.3008-3.0547 0-2.3516-1.9062-4.2578-4.2539-4.2578-1.3789 0-2.5938 0.66796-3.3711 1.6836h-0.0156c-1.6641 2.0742-4.9609 3.9141-9.6562 3.9141-7.5234 0-13.305-4.2812-14.527-11.977h34.551c0.83985 0 1.6094-0.33984 2.168-0.89844 0.55469-0.55469 0.89453-1.3242 0.89453-2.1641 0-13.121-9.4414-22.742-23.086-22.742" style="fill:#3ac2d7"/>
 <path d="m476.41 221.48c-8.9219 0-14.871-6.2969-14.871-15.043s5.9492-15.043 14.871-15.043c8.832 0 14.781 6.2969 14.781 15.043s-5.9492 15.043-14.781 15.043m0.082-37.785c-13.723 0-23.344 9.4492-23.344 23.004 0 14.348 10.664 22.484 21.949 22.484 4.8438 0 9.1875-1.5117 12.445-4.3008 1.4375-1.2305 3.6484-0.21875 3.6484 1.668h0.12109c0.63672 1.543 2.1562 2.6328 3.9297 2.6328 1.9492 0 3.5781-1.3203 4.0781-3.1094 0.0312-0.0703 0.0508-0.14844 0.0742-0.23047 8e-3 -0.0352 0.0156-0.0703 0.0234-0.10156 0.0469-0.23047 0.082-0.48828 0.082-0.8125v-18.137c0-14.09-9.625-23.098-23.008-23.098" style="fill:#3ac2d7"/>
 <path d="m420.79 221.48c-8.9219 0-14.871-6.2969-14.871-15.043s5.9492-15.043 14.871-15.043c8.832 0 14.781 6.2969 14.781 15.043s-5.9492 15.043-14.781 15.043m18.938-52.938c-2.293 0-4.1562 1.8594-4.1562 4.1562 0 0.0117 4e-3 0.0234 4e-3 0.0352 0 8e-3 -4e-3 0.0117-4e-3 0.0195v19.688c-3.1484-5.5977-9.0977-8.7461-16.09-8.7461-11.289 0-21.953 8.1367-21.953 22.484 0 13.551 9.6133 23.004 23.344 23.004 13.387 0 23.008-9.0078 23.008-23.098v-33.332c0-4e-3 -4e-3 -0.0117-4e-3 -0.0156 0-0.0156 4e-3 -0.0273 4e-3 -0.0391 0-2.2969-1.8594-4.1562-4.1523-4.1562" style="fill:#3ac2d7"/>
 <path d="m208.22 184.77c-0.55469 0-1.1055-0.21094-1.5273-0.63282-0.84375-0.84375-0.84375-2.2109 0-3.0547l14.98-14.977c0.83985-0.84375 2.207-0.84375 3.0508 0 0.84765 0.84375 0.84765 2.2109 0 3.0547l-14.977 14.977c-0.42187 0.42188-0.97656 0.63282-1.5273 0.63282" style="fill:#e13894"/>
 <path d="m202.82 188.91-46.336 46.41c-5.3164 5.3125-13.941 5.3125-19.254 0l-23.746-23.746 21.613-21.613 6.7266 6.7227c3.8438 3.8594 8.5976 5.9922 13.391 5.9922 3.6445 0 7.2734-1.2383 10.484-3.6016 1.1797-0.84765 1.9297-2.1875 2.043-3.6562 0.11718-1.4688-0.41407-2.8945-1.4531-3.9336l-17.871-17.867 11.379-11.348c4.5195-4.5234 11.863-4.5234 16.383 0.0156z" style="fill:#e13894"/>
 <path d="m164.42 197.33c-2.9805 2.1875-6.1211 3.1836-9.2031 3.1836-2.1445 0-4.2773-0.49219-6.2773-1.3984-0.75-0.34375-1.4844-0.74609-2.2031-1.207-1.1953-0.76563-2.332-1.6875-3.3828-2.75-4.2188-4.2227-7.9922-7.9922-8.2383-8.2383l-3.9727 3.9609-1.1406 1.1367c-1.1641 1.1797-2.3906 2.4024-3.5117 3.5274l-14.516 14.488-11.504-11.508c-9.1562-9.1524-8.1953-24.551 1.0781-33.824 4.8242-4.8086 11.133-7.2305 17.438-7.2305 5.8476 0 11.965 1.7422 16.363 6.1289 7.5547 7.5352 29.414 29.41 29.414 29.41 1.2383 1.2383 1.0664 3.2969-0.34375 4.3203" style="fill:#3ac2d7"/>
 <path d="m126.49 195.54c1.125-1.125 2.3477-2.3477 3.5156-3.5274l-18.031 18.012zm8.6094-8.6406-3.957 3.9727 3.9727-3.957z" style="fill:#ffffff"/>
 <path d="m202.68 179.24c-0.55078 0-1.1055-0.21094-1.5273-0.63282-0.84375-0.84375-0.84375-2.2109 0-3.0547l9.4609-9.4609c0.83984-0.84375 2.2109-0.84375 3.0508 0 0.84765 0.84375 0.84765 2.2109 0 3.0547l-9.457 9.4609c-0.42188 0.42188-0.97657 0.63282-1.5274 0.63282" style="fill:#e13894"/>
 <path d="m197.15 173.71c-0.55469 0-1.1055-0.21094-1.5274-0.63281-0.84375-0.84375-0.84375-2.2109 0-3.0547l5.8359-5.8359c0.83984-0.84375 2.207-0.84375 3.0508 0s0.84375 2.2109 0 3.0547l-5.832 5.8359c-0.42187 0.42187-0.97266 0.63281-1.5273 0.63281" style="fill:#e13894"/>
</svg>